<?xml version="1.0" standalone="no"?>
<!DOCTYPE svg PUBLIC "-//W3C//DTD SVG 20010904//EN"
 "http://www.w3.org/TR/2001/REC-SVG-20010904/DTD/svg10.dtd">
<svg version="1.0" xmlns="http://www.w3.org/2000/svg"
 width="500.000000pt" height="525.000000pt" viewBox="0 0 500.000000 525.000000"
 preserveAspectRatio="xMidYMid meet">

<g transform="translate(0.000000,525.000000) scale(0.100000,-0.100000)"
fill="#000000" stroke="none">
<path d="M2283 5240 c-362 -36 -723 -156 -1033 -344 -332 -203 -650 -522 -855
-861 -517 -852 -523 -1938 -15 -2796 201 -339 511 -660 838 -866 554 -350
1239 -459 1871 -298 920 233 1635 995 1850 1970 43 197 55 320 55 580 0 190
-4 279 -18 370 -89 596 -329 1092 -724 1497 -386 396 -832 633 -1362 724 -164
28 -449 39 -607 24z m527 -25 c813 -109 1512 -619 1894 -1382 217 -435 318
-953 276 -1423 -59 -656 -321 -1230 -765 -1675 -382 -383 -869 -627 -1401
-702 -144 -20 -459 -23 -589 -5 -458 63 -836 219 -1200 495 -111 85 -321 292
-418 412 -484 600 -684 1386 -551 2160 74 426 241 810 508 1165 93 124 296
332 421 433 364 293 804 479 1245 526 58 6 121 13 140 15 63 7 333 -4 440 -19z"/>
<path d="M2325 4729 c-347 -35 -647 -135 -890 -296 -120 -80 -289 -245 -358
-350 -72 -108 -132 -233 -170 -351 -56 -172 -71 -248 -87 -435 -13 -154 -1
-235 50 -347 81 -177 80 -236 -9 -414 -33 -67 -106 -190 -161 -275 -107 -166
-116 -190 -82 -246 24 -38 101 -80 181 -99 34 -8 69 -20 77 -26 17 -15 18 -89
3 -195 -11 -71 -10 -79 8 -103 16 -23 60 -52 98 -66 6 -2 3 -16 -7 -34 -35
-59 -19 -118 53 -201 59 -66 67 -105 40 -193 -35 -120 -25 -204 30 -255 40
-37 131 -72 215 -84 90 -12 171 -6 293 23 228 53 306 54 403 1 74 -40 157
-144 199 -251 l19 -47 -8 55 c-4 30 -7 109 -6 175 1 127 24 247 64 326 11 21
20 40 20 41 0 2 -79 2 -175 0 -96 -2 -175 -1 -175 2 0 3 156 227 347 498 191
271 372 529 401 573 30 44 57 81 61 82 3 1 96 -96 206 -217 110 -120 205 -219
212 -219 12 -1 172 167 245 259 122 151 254 371 309 514 16 43 29 80 27 81 -2
2 -42 -10 -88 -26 -137 -49 -275 -86 -425 -115 -127 -25 -162 -28 -375 -28
-242 -1 -277 3 -428 46 l-72 21 -87 108 c-95 117 -87 99 -118 287 -5 26 -10
32 -31 32 -31 0 -60 14 -99 50 -16 14 -48 32 -71 38 -53 15 -118 63 -146 107
-20 31 -27 34 -54 29 -21 -4 -45 1 -73 15 -41 21 -424 315 -429 330 -3 10 129
184 187 244 25 27 80 71 121 98 77 51 85 57 205 159 61 53 214 140 244 140 6
0 34 14 62 31 90 56 189 82 314 82 78 0 124 -5 158 -17 44 -16 51 -16 66 -2
33 30 130 67 193 72 78 8 165 -12 265 -61 63 -31 83 -36 160 -39 95 -3 146
-20 236 -78 42 -27 54 -30 93 -24 50 6 152 57 227 111 56 42 61 69 18 117
-107 122 -525 269 -927 328 -164 23 -430 33 -559 19z"/>
<path d="M2813 4180 c-13 -5 -23 -16 -23 -23 0 -11 26 -18 98 -26 53 -6 111
-13 129 -16 25 -3 35 2 48 21 8 13 22 24 30 24 27 0 15 17 -16 24 -47 9 -241
6 -266 -4z"/>
<path d="M3995 4125 c143 -217 232 -483 255 -767 34 -401 -98 -890 -335 -1248
-106 -160 -240 -454 -308 -675 l-24 -81 38 -44 c21 -24 40 -42 42 -40 2 3 22
59 46 125 23 66 69 174 101 240 54 112 229 385 321 500 49 62 179 323 214 430
58 179 69 246 69 450 0 213 -6 248 -90 506 -74 226 -228 514 -338 634 -35 39
-35 38 9 -30z"/>
<path d="M3153 4140 c14 -11 29 -20 33 -20 4 0 -1 9 -11 20 -10 11 -25 20 -33
20 -9 0 -6 -7 11 -20z"/>
<path d="M2445 4133 c-26 -7 -69 -37 -122 -85 -24 -21 -50 -38 -58 -38 -50 0
-144 -73 -199 -154 l-37 -53 32 -47 c29 -40 37 -46 69 -46 33 0 64 22 294 210
l257 210 -79 0 c-44 0 -92 2 -108 4 -16 2 -38 2 -49 -1z"/>
<path d="M2355 4123 c-11 -2 -51 -13 -88 -24 l-68 -20 36 -25 c21 -14 41 -24
45 -22 13 5 112 98 104 97 -5 -1 -18 -3 -29 -6z"/>
<path d="M2791 4103 c69 -88 255 -298 264 -298 6 0 14 46 19 112 6 87 5 119
-5 143 -8 16 -18 30 -24 30 -5 0 -57 7 -115 15 -58 8 -116 15 -129 15 -21 0
-22 -2 -10 -17z"/>
<path d="M3190 4101 c-20 -3 -36 -13 -37 -21 -5 -26 41 -95 65 -98 12 -2 60
17 107 44 l86 46 -31 19 c-31 19 -113 24 -190 10z"/>
<path d="M2652 3821 c-89 -268 -90 -269 -68 -280 19 -11 42 -3 168 56 135 63
146 70 151 98 4 22 -14 77 -71 213 -41 100 -79 182 -83 182 -4 0 -48 -121 -97
-269z"/>
<path d="M2655 4056 c-349 -266 -475 -369 -475 -389 0 -19 21 -30 158 -83 144
-56 159 -59 177 -45 15 11 42 85 98 274 43 143 77 261 75 263 -2 1 -17 -7 -33
-20z"/>
<path d="M2070 4015 c-79 -42 -180 -117 -180 -134 0 -4 19 -21 43 -38 57 -42
85 -36 117 23 27 52 95 115 151 141 45 21 48 30 13 43 -40 16 -54 12 -144 -35z"/>
<path d="M3105 3970 c-4 -47 -5 -107 -3 -135 l3 -50 26 50 c15 28 29 74 31
104 5 48 2 57 -22 85 l-28 30 -7 -84z"/>
<path d="M2859 3908 c85 -194 87 -198 116 -198 25 0 65 31 65 50 0 8 -164 204
-222 265 -11 12 6 -37 41 -117z"/>
<path d="M3340 4002 c-107 -42 -123 -63 -74 -101 15 -11 29 -21 33 -21 3 0 39
36 79 80 40 44 70 80 65 79 -4 0 -51 -17 -103 -37z"/>
<path d="M3409 3943 c-49 -48 -89 -94 -89 -104 0 -12 15 -22 48 -33 71 -23
323 -88 327 -84 4 3 -57 166 -89 241 -16 36 -61 67 -97 67 -6 0 -51 -39 -100
-87z"/>
<path d="M3677 3873 c14 -38 31 -83 37 -102 7 -19 17 -36 22 -38 6 -2 21 22
35 54 13 32 25 61 27 64 3 7 -127 89 -141 89 -3 0 5 -30 20 -67z"/>
<path d="M3182 3878 c-18 -23 -53 -98 -45 -98 16 0 86 45 96 61 22 35 -25 69
-51 37z"/>
<path d="M1826 3854 l-28 -16 58 -59 58 -58 23 34 c13 19 25 37 26 40 2 5 -93
75 -102 75 -3 -1 -19 -8 -35 -16z"/>
<path d="M1720 3787 c-25 -19 -81 -67 -124 -108 l-79 -74 54 -7 c30 -3 102 -6
161 -7 l108 -1 15 37 c9 21 22 44 30 53 12 14 8 23 -37 75 -28 33 -58 61 -67
62 -9 2 -36 -12 -61 -30z"/>
<path d="M3801 3768 c-14 -35 -18 -55 -11 -62 5 -5 10 -18 10 -27 0 -25 39
-35 59 -15 30 30 7 156 -28 156 -5 0 -18 -23 -30 -52z"/>
<path d="M3180 3768 c-25 -13 -46 -30 -48 -39 -2 -13 128 -193 134 -186 5 5
-14 226 -20 236 -10 15 -15 14 -66 -11z"/>
<path d="M3346 3779 c6 -8 38 -52 72 -99 l61 -86 47 2 c33 1 65 12 106 35 32
19 58 36 58 39 0 3 -73 30 -162 59 -90 30 -170 56 -178 59 -12 5 -13 3 -4 -9z"/>
<path d="M1970 3755 c-13 -13 -21 -27 -18 -30 5 -5 101 -25 105 -22 0 1 -13
19 -31 40 l-32 38 -24 -26z"/>
<path d="M3299 3768 c-2 -29 3 -263 5 -265 5 -5 150 47 159 56 8 8 -146 221
-159 221 -2 0 -4 -6 -5 -12z"/>
<path d="M3057 3700 c-90 -16 -76 -44 57 -112 58 -30 102 -49 98 -44 -12 21
-104 151 -111 157 -3 3 -23 3 -44 -1z"/>
<path d="M3894 3676 c-20 -42 -12 -56 48 -87 l38 -19 0 23 c0 28 -41 110 -57
115 -7 2 -20 -12 -29 -32z"/>
<path d="M1899 3644 c-12 -26 -18 -56 -15 -69 15 -58 69 -186 76 -178 5 4 31
59 60 121 58 130 58 133 -23 157 -72 21 -76 20 -98 -31z"/>
<path d="M3757 3622 c-12 -14 -15 -30 -10 -75 7 -66 16 -64 60 10 24 42 25 45
8 63 -22 25 -37 25 -58 2z"/>
<path d="M2150 3615 c-8 -10 -9 -73 -3 -230 l8 -217 168 147 c92 80 167 152
167 159 0 12 -52 37 -252 122 -64 27 -79 30 -88 19z"/>
<path d="M2755 3570 c-104 -46 -133 -64 -144 -87 -8 -15 -18 -29 -23 -31 -15
-6 -9 -20 73 -167 48 -85 85 -143 90 -138 5 5 47 113 93 241 65 182 80 232 69
237 -21 8 -17 9 -158 -55z"/>
<path d="M3632 3594 c-35 -20 -61 -41 -59 -47 2 -7 29 -26 61 -43 51 -27 61
-30 75 -18 13 11 15 27 11 76 -3 34 -9 63 -15 65 -5 1 -38 -13 -73 -33z"/>
<path d="M2875 3389 c-42 -126 -75 -232 -74 -233 2 -2 74 39 159 90 138 84
155 97 156 122 0 18 -24 63 -75 139 -42 62 -79 113 -83 113 -3 0 -41 -104 -83
-231z"/>
<path d="M3000 3606 c0 -2 32 -43 71 -92 96 -121 130 -128 180 -42 8 15 -7 26
-111 78 -109 54 -140 67 -140 56z"/>
<path d="M2072 3543 c-17 -32 -46 -93 -66 -135 l-35 -78 72 -84 72 -84 3 211
c1 116 -1 214 -6 219 -5 5 -22 -17 -40 -49z"/>
<path d="M1695 3430 c201 -134 230 -147 218 -99 -3 11 0 25 6 32 8 11 1 35
-28 103 -46 106 -33 101 -251 103 l-155 1 210 -140z"/>
<path d="M3817 3522 c-79 -80 -61 -89 87 -43 49 14 91 31 93 36 3 11 -92 55
-117 55 -9 0 -37 -22 -63 -48z"/>
<path d="M3403 3492 c-40 -10 -76 -21 -82 -27 -6 -6 10 -63 46 -160 31 -82 58
-152 60 -154 8 -10 14 14 38 159 26 163 30 201 18 199 -5 -1 -40 -8 -80 -17z"/>
<path d="M3542 3488 c-9 -13 -83 -340 -77 -346 2 -2 51 58 110 132 118 151
120 158 57 201 -40 27 -74 32 -90 13z"/>
<path d="M2430 3373 c-47 -42 -123 -112 -169 -155 l-84 -78 38 -16 c37 -15 63
-15 143 2 27 5 32 3 32 -13 0 -15 14 -22 81 -36 45 -9 85 -14 90 -11 13 8 11
56 -11 219 -11 81 -20 152 -20 156 0 19 -19 6 -100 -68z"/>
<path d="M3249 3417 c-44 -55 -36 -83 55 -182 43 -47 80 -84 83 -81 2 2 -13
55 -35 118 -62 173 -64 178 -70 178 -4 0 -19 -15 -33 -33z"/>
<path d="M3860 3438 c-59 -11 -90 -31 -90 -58 0 -9 19 -64 43 -121 24 -57 47
-113 50 -123 4 -10 10 -17 12 -14 10 9 115 294 115 311 0 20 -38 21 -130 5z"/>
<path d="M3962 3268 c-43 -111 -59 -165 -52 -172 5 -5 10 -19 10 -31 0 -16 16
-28 75 -53 91 -39 118 -40 151 -5 31 34 31 38 -30 208 -71 200 -77 215 -84
215 -4 0 -35 -73 -70 -162z"/>
<path d="M2564 3394 c3 -16 13 -85 22 -154 20 -155 24 -164 72 -156 19 3 43
12 51 21 15 15 9 29 -59 162 -77 148 -97 177 -86 127z"/>
<path d="M4085 3395 c27 -80 58 -171 61 -174 2 -2 6 3 10 12 9 25 -24 123 -52
154 -20 22 -24 24 -19 8z"/>
<path d="M3596 3259 c-64 -79 -116 -151 -116 -161 0 -10 9 -20 23 -23 27 -6
262 -43 263 -41 4 5 -42 356 -47 361 -4 3 -59 -58 -123 -136z"/>
<path d="M1934 3305 c-11 -28 48 -89 134 -139 16 -9 -50 86 -87 127 -28 31
-39 34 -47 12z"/>
<path d="M2985 3229 c-173 -105 -175 -106 -155 -120 23 -15 551 -8 548 8 -2 7
-42 52 -91 101 -63 65 -93 89 -106 85 -10 -3 -22 0 -25 6 -4 6 -10 11 -14 11
-4 -1 -74 -41 -157 -91z"/>
<path d="M3770 3274 c0 -10 7 -64 15 -119 8 -55 15 -103 15 -107 0 -5 5 -8 12
-8 6 0 8 3 5 7 -4 3 0 17 8 29 13 21 12 31 -16 116 -34 101 -39 111 -39 82z"/>
<path d="M2816 3081 c-11 -17 -2 -27 167 -205 128 -134 164 -166 186 -166 24
0 37 17 128 172 56 95 99 176 97 179 -2 3 -86 9 -186 13 -101 3 -229 9 -284
12 -70 5 -103 3 -108 -5z"/>
<path d="M2768 2944 c-4 -164 -12 -157 327 -251 15 -4 12 4 -16 33 -20 22 -83
95 -140 164 -118 142 -144 170 -158 170 -6 0 -11 -48 -13 -116z"/>
<path d="M2656 3035 c-13 -14 -11 -24 19 -96 53 -122 52 -122 57 -13 3 57 1
104 -5 112 -13 17 -52 15 -71 -3z"/>
<path d="M3601 2924 c120 -120 126 -125 152 -115 28 11 28 11 25 97 l-3 87
-110 22 c-60 12 -128 25 -150 28 l-39 6 125 -125z"/>
<path d="M3440 2880 c0 -88 1 -160 3 -160 3 0 200 66 225 75 9 3 -27 48 -99
125 -62 66 -116 120 -121 120 -4 0 -8 -72 -8 -160z"/>
<path d="M2378 3025 c-7 -8 15 -103 27 -113 6 -5 29 -16 51 -25 l41 -16 32 67
c28 62 29 68 14 80 -16 12 -154 18 -165 7z"/>
<path d="M3807 2998 c-5 -15 2 -106 10 -128 3 -8 11 14 18 50 12 62 7 90 -15
90 -5 0 -10 -6 -13 -12z"/>
<path d="M3881 2988 c-19 -51 -34 -128 -27 -135 7 -7 136 55 136 66 0 9 -84
91 -92 91 -5 0 -12 -10 -17 -22z"/>
<path d="M3958 2985 c32 -41 59 -57 82 -50 38 12 25 22 -94 74 -6 2 0 -9 12
-24z"/>
<path d="M2562 2924 c-18 -37 -31 -68 -29 -70 7 -7 149 -45 157 -42 10 4 -72
171 -85 175 -6 2 -25 -27 -43 -63z"/>
<path d="M3362 2829 c-23 -67 -40 -124 -38 -126 2 -2 19 0 37 5 31 7 34 13 42
56 4 27 7 79 5 117 l-3 70 -43 -122z"/>
<path d="M3286 2818 c-37 -65 -66 -121 -63 -124 3 -3 19 -1 37 3 32 9 34 12
66 123 17 63 31 116 31 116 -1 1 -33 -52 -71 -118z"/>
<path d="M2455 2832 c-38 -8 -37 -20 4 -64 l41 -43 -2 48 c-1 51 -12 66 -43
59z"/>
<path d="M2550 2804 c0 -7 75 -73 83 -74 5 0 20 9 34 20 18 14 21 21 12 24
-32 11 -129 34 -129 30z"/>
<path d="M2530 2748 c0 -30 18 -48 47 -48 32 0 29 13 -12 44 l-35 27 0 -23z"/>
<path d="M2772 2752 c-9 -6 -10 -19 -4 -47 l8 -38 129 2 c72 1 131 4 133 5 3
4 -231 86 -244 86 -5 0 -15 -4 -22 -8z"/>
<path d="M2662 2724 c-27 -24 -27 -24 -7 -39 30 -24 89 -16 93 11 2 16 -5 26
-28 37 -29 15 -32 14 -58 -9z"/>
<path d="M2711 2026 c-22 -41 -41 -80 -41 -86 0 -7 22 -43 49 -81 l49 -70 48
67 c26 37 47 72 47 78 0 8 -81 131 -108 164 -2 2 -21 -31 -44 -72z m97 -22
l49 -69 -41 -62 c-23 -34 -43 -62 -46 -62 -9 -1 -92 127 -89 136 19 41 71 134
74 131 3 -2 26 -35 53 -74z"/>
<path d="M2867 1790 l-48 -80 142 -227 c163 -260 148 -238 153 -232 2 2 -60
107 -139 232 l-144 228 42 69 c23 39 44 70 47 70 3 0 113 -160 245 -356 254
-376 268 -396 263 -376 -4 16 -501 751 -508 752 -3 0 -27 -36 -53 -80z"/>
<path d="M2375 1515 c-126 -184 -236 -343 -244 -355 -13 -20 -12 -20 85 -20
l99 1 190 265 c105 146 193 272 198 279 4 9 -10 41 -40 89 -27 41 -50 75 -53
75 -3 0 -108 -150 -235 -334z"/>
<path d="M2701 1535 l-53 -85 103 -162 c57 -89 140 -218 184 -287 l81 -126
113 -3 c92 -3 112 -1 105 10 -4 7 -101 159 -214 338 -113 179 -216 342 -229
363 -12 20 -26 37 -29 37 -4 0 -31 -38 -61 -85z"/>
<path d="M2493 1211 c-40 -57 -41 -59 -20 -65 12 -3 91 -6 175 -6 l152 0 -39
63 -40 62 -93 2 -93 2 -42 -58z"/>
<path d="M3050 1256 c0 -3 19 -34 41 -70 l41 -66 137 2 136 2 -133 3 -133 4
-35 56 c-29 44 -33 57 -23 64 10 6 8 9 -8 9 -13 0 -23 -2 -23 -4z"/>
<path d="M3524 1053 c-16 -151 -5 -453 17 -453 5 0 9 26 9 58 0 59 27 243 54
372 9 41 16 78 16 83 0 4 -20 7 -44 7 l-44 0 -8 -67z"/>
<path d="M2862 757 c-12 -15 -13 -67 -1 -67 5 0 9 14 9 30 0 17 5 30 10 30 6
0 10 -13 10 -30 0 -16 4 -30 9 -30 5 0 7 9 4 20 -7 27 11 25 25 -2 6 -14 11
-17 11 -8 1 20 -9 32 -41 52 -20 13 -28 14 -36 5z"/>
<path d="M3375 760 c-3 -5 -1 -10 4 -10 6 0 11 5 11 10 0 6 -2 10 -4 10 -3 0
-8 -4 -11 -10z"/>
<path d="M3417 757 c-13 -9 -15 -18 -8 -42 8 -25 9 -26 10 -7 1 12 1 25 0 28
0 4 5 10 12 15 8 4 11 10 8 13 -3 3 -13 0 -22 -7z"/>
<path d="M2290 750 c0 -5 5 -21 12 -35 12 -28 34 -35 23 -7 -4 9 -10 25 -12
35 -6 18 -23 24 -23 7z"/>
<path d="M2350 725 c0 -19 5 -35 10 -35 6 0 10 16 10 35 0 19 -4 35 -10 35 -5
0 -10 -16 -10 -35z"/>
<path d="M2420 725 c0 -19 5 -35 10 -35 6 0 10 16 10 35 0 19 -4 35 -10 35 -5
0 -10 -16 -10 -35z"/>
<path d="M2452 725 c1 -19 5 -32 9 -29 10 6 8 64 -2 64 -5 0 -8 -16 -7 -35z"/>
<path d="M2740 745 c0 -9 7 -18 16 -22 8 -3 13 -12 10 -20 -3 -8 -1 -11 4 -8
16 10 12 29 -10 48 -17 14 -20 15 -20 2z"/>
<path d="M3180 725 c0 -19 5 -35 10 -35 6 0 10 16 10 35 0 19 -4 35 -10 35 -5
0 -10 -16 -10 -35z"/>
<path d="M3310 725 c0 -19 5 -35 10 -35 6 0 10 16 10 35 0 19 -4 35 -10 35 -5
0 -10 -16 -10 -35z"/>
<path d="M2491 713 c1 -22 2 -23 6 -8 3 11 10 23 17 27 7 5 5 8 -6 8 -13 0
-18 -7 -17 -27z"/>
<path d="M2530 715 c0 -14 5 -25 10 -25 6 0 10 11 10 25 0 14 -4 25 -10 25 -5
0 -10 -11 -10 -25z"/>
<path d="M2561 713 c2 -24 2 -25 6 -5 2 12 8 22 13 22 5 0 11 -10 13 -22 4
-20 4 -19 6 5 1 21 -4 27 -19 27 -15 0 -20 -6 -19 -27z"/>
<path d="M2621 728 c-1 -10 5 -18 13 -18 17 0 31 18 21 28 -3 3 -10 0 -14 -7
-7 -11 -10 -11 -14 0 -4 10 -6 9 -6 -3z"/>
<path d="M2670 730 c0 -4 6 -13 14 -20 12 -9 15 -8 13 8 -1 17 -27 28 -27 12z"/>
<path d="M2801 718 c-1 -19 4 -28 14 -28 21 0 31 29 15 43 -10 10 -12 8 -7 -5
3 -10 2 -20 -3 -23 -5 -3 -11 5 -13 17 -4 20 -4 19 -6 -4z"/>
<path d="M2947 720 c6 -22 23 -38 23 -21 0 17 -12 41 -20 41 -5 0 -6 -9 -3
-20z"/>
<path d="M3017 727 c-3 -8 -1 -20 4 -28 6 -10 9 -7 9 14 0 29 -5 35 -13 14z"/>
<path d="M3050 714 c0 -13 5 -24 10 -24 6 0 10 9 10 20 0 11 4 20 9 20 5 0 11
-9 14 -20 3 -11 10 -20 15 -20 6 0 8 10 4 22 -3 14 -2 19 6 14 7 -4 12 -3 12
2 0 5 -18 10 -40 10 -36 1 -40 -2 -40 -24z"/>
<path d="M3225 727 c-9 -22 8 -42 29 -34 18 7 21 33 6 42 -5 3 -10 -4 -11 -17
-1 -23 -1 -23 -9 2 -6 22 -8 23 -15 7z"/>
<path d="M3370 728 c0 -7 5 -20 10 -28 8 -12 10 -9 10 13 0 15 -4 27 -10 27
-5 0 -10 -6 -10 -12z"/>
<path d="M3441 718 c-1 -20 4 -28 15 -28 12 0 14 4 7 13 -6 6 -13 19 -16 27
-3 9 -6 3 -6 -12z"/>
<path d="M3460 730 c0 -5 5 -10 11 -10 5 0 7 5 4 10 -3 6 -8 10 -11 10 -2 0
-4 -4 -4 -10z"/>
<path d="M2990 700 c0 -5 5 -10 10 -10 6 0 10 5 10 10 0 6 -4 10 -10 10 -5 0
-10 -4 -10 -10z"/>
<path d="M2620 692 c0 -4 9 -8 20 -9 11 -1 20 2 20 8 0 5 -9 9 -20 9 -11 0
-20 -4 -20 -8z"/>
</g>
</svg>
